<svg width="58" height="11" viewBox="0 0 58 11" version="1.1" xmlns="http://www.w3.org/2000/svg" xmlns:xlink="http://www.w3.org/1999/xlink">
  <title>battery</title>
  <desc>Created using Figma</desc>
  <g id="Canvas" transform="translate(315 -417)">
    <g id="battery">
      <g id="100%">
        <use xlink:href="#path0_fill" transform="translate(-318 415.5)" fill="#FFFFFF"/>
      </g>
      <g id="Battery">
        <g id="Rectangle" opacity="0.4">
          <mask id="mask0_outline_ins">
            <use xlink:href="#path1_fill" fill="white" transform="translate(-282 417)"/>
          </mask>
          <g mask="url(#mask0_outline_ins)">
            <use xlink:href="#path2_stroke_2x" transform="translate(-282 417)" fill="#FFFFFF"/>
          </g>
        </g>
        <g id="Combined Shape">
          <use xlink:href="#path3_fill" transform="translate(-259 420.5)" fill="#FFFFFF" fill-opacity="0.5"/>
        </g>
        <g id="Rectangle">
          <use xlink:href="#path4_fill" transform="translate(-280 419)" fill="#FFFFFF"/>
        </g>
      </g>
    </g>
  </g>
  <defs>
    <path id="path0_fill" d="M 5.8125 11L 6.86719 11L 6.86719 2.54492L 5.81836 2.54492L 3.56836 4.16211L 3.56836 5.27539L 5.71875 3.7168L 5.8125 3.7168L 5.8125 11ZM 12.2344 11.1992C 14.1328 11.1992 15.2227 9.59375 15.2227 6.78711C 15.2227 3.98633 14.1152 2.3457 12.2344 2.3457C 10.3418 2.3457 9.23438 3.98047 9.23438 6.76953C 9.23438 9.58203 10.3301 11.1992 12.2344 11.1992ZM 12.2344 10.2793C 10.9863 10.2793 10.2949 9.03125 10.2949 6.76953C 10.2949 4.53711 10.998 3.27148 12.2344 3.27148C 13.4707 3.27148 14.1621 4.52539 14.1621 6.76953C 14.1621 9.03711 13.4824 10.2793 12.2344 10.2793ZM 19.793 11.1992C 21.6914 11.1992 22.7812 9.59375 22.7812 6.78711C 22.7812 3.98633 21.6738 2.3457 19.793 2.3457C 17.9004 2.3457 16.793 3.98047 16.793 6.76953C 16.793 9.58203 17.8887 11.1992 19.793 11.1992ZM 19.793 10.2793C 18.5449 10.2793 17.8535 9.03125 17.8535 6.76953C 17.8535 4.53711 18.5566 3.27148 19.793 3.27148C 21.0293 3.27148 21.7207 4.52539 21.7207 6.76953C 21.7207 9.03711 21.041 10.2793 19.793 10.2793ZM 27.6387 4.43164C 27.6387 3.23633 26.8945 2.39844 25.8398 2.39844C 24.7852 2.39844 24.0352 3.24219 24.0352 4.43164C 24.0352 5.62695 24.7852 6.4707 25.8398 6.4707C 26.8945 6.4707 27.6387 5.62695 27.6387 4.43164ZM 25.8398 5.7207C 25.3184 5.7207 24.9727 5.21094 24.9727 4.43164C 24.9727 3.65234 25.3125 3.14844 25.8398 3.14844C 26.3672 3.14844 26.7012 3.64062 26.7012 4.43164C 26.7012 5.20508 26.3555 5.7207 25.8398 5.7207ZM 25.7461 11L 28.6465 7.0332L 31.9277 2.54492L 30.8613 2.54492L 27.8965 6.59375L 24.668 11L 25.7461 11ZM 32.5312 9.10742C 32.5312 7.91211 31.7871 7.07422 30.7324 7.07422C 29.6777 7.07422 28.9277 7.91797 28.9277 9.10742C 28.9277 10.3027 29.6777 11.1465 30.7324 11.1465C 31.7871 11.1465 32.5312 10.3027 32.5312 9.10742ZM 30.7324 10.3965C 30.2109 10.3965 29.8652 9.88672 29.8652 9.10742C 29.8652 8.32812 30.2051 7.82422 30.7324 7.82422C 31.2598 7.82422 31.5938 8.31641 31.5938 9.10742C 31.5938 9.88086 31.248 10.3965 30.7324 10.3965Z"/>
    <path id="path1_fill" fill-rule="evenodd" d="M 0 2.5C 0 1.11929 1.11929 0 2.5 0L 19.5 0C 20.8807 0 22 1.11929 22 2.5L 22 8C 22 9.38071 20.8807 10.5 19.5 10.5L 18.4687 10.5L 2.5 10.5C 1.11929 10.5 0 9.38071 0 8L 0 2.5Z"/>
    <path id="path2_stroke_2x" d="M 2.5 1L 19.5 1L 19.5 -1L 2.5 -1L 2.5 1ZM 21 2.5L 21 8L 23 8L 23 2.5L 21 2.5ZM 19.5 9.5L 18.4687 9.5L 18.4687 11.5L 19.5 11.5L 19.5 9.5ZM 18.4687 9.5L 2.5 9.5L 2.5 11.5L 18.4687 11.5L 18.4687 9.5ZM 1 8L 1 2.5L -1 2.5L -1 8L 1 8ZM 2.5 9.5C 1.67157 9.5 1 8.82843 1 8L -1 8C -1 9.933 0.567003 11.5 2.5 11.5L 2.5 9.5ZM 18.4687 11.5C 18.4687 10.5 18.4687 9.5 18.4687 9.5C 18.4687 9.5 18.4687 10.5 18.4687 11.5L 18.4687 9.5C 18.4687 10.5 18.4687 11.5 18.4687 11.5C 18.4687 11.5 18.4687 10.5 18.4687 9.5L 18.4687 11.5ZM 21 8C 21 8.82843 20.3284 9.5 19.5 9.5L 19.5 11.5C 21.433 11.5 23 9.933 23 8L 21 8ZM 19.5 1C 20.3284 1 21 1.67157 21 2.5L 23 2.5C 23 0.567003 21.433 -1 19.5 -1L 19.5 1ZM 2.5 -1C 0.567003 -1 -1 0.567003 -1 2.5L 1 2.5C 1 1.67157 1.67157 1 2.5 1L 2.5 -1Z"/>
    <path id="path3_fill" fill-rule="evenodd" d="M 0 3.87396C 0.86261 3.65195 1.5 2.86893 1.5 1.93698C 1.5 1.00504 0.86261 0.222015 0 0L 0 3.87396Z"/>
    <path id="path4_fill" fill-rule="evenodd" d="M 0 1C 0 0.447715 0.447715 0 1 0L 17 0C 17.5523 0 18 0.447715 18 1L 18 5.5C 18 6.05228 17.5523 6.5 17 6.5L 1 6.5C 0.447715 6.5 0 6.05228 0 5.5L 0 1Z"/>
  </defs>
</svg>
