<svg width="16" height="10" viewBox="0 0 16 10" version="1.1" xmlns="http://www.w3.org/2000/svg" xmlns:xlink="http://www.w3.org/1999/xlink">
  <title>GS</title>
  <desc>Created using Figma</desc>
  <g id="Canvas" transform="translate(602 -416)">
    <g id="GS">
      <use xlink:href="#path0_fill" transform="translate(-602 414.5)" fill="#FFFFFF"/>
    </g>
  </g>
  <defs>
    <path id="path0_fill" d="M 8.17383 7.73047L 8.17383 6.69922L 4.74609 6.69922L 4.74609 7.625L 7.125 7.625L 7.125 7.83008C 7.125 9.25977 6.09961 10.2266 4.58789 10.2266C 2.88867 10.2266 1.83398 8.90234 1.83398 6.76953C 1.83398 4.66602 2.90625 3.31836 4.58203 3.31836C 5.83594 3.31836 6.68555 3.92188 7.04883 5.06445L 8.12109 5.06445C 7.81641 3.38867 6.45703 2.3457 4.58203 2.3457C 2.26758 2.3457 0.75 4.09766 0.75 6.76953C 0.75 9.47656 2.24414 11.1992 4.58203 11.1992C 6.74414 11.1992 8.17383 9.81641 8.17383 7.73047ZM 9.63867 8.79102C 9.75 10.25 10.9863 11.1992 12.7793 11.1992C 14.7129 11.1992 15.9375 10.209 15.9375 8.65625C 15.9375 7.41406 15.2344 6.73438 13.4824 6.29492L 12.5977 6.06055C 11.4316 5.76172 10.9688 5.38086 10.9688 4.71875C 10.9688 3.86328 11.7129 3.30078 12.8379 3.30078C 13.8926 3.30078 14.6074 3.81641 14.7539 4.68359L 15.8145 4.68359C 15.7266 3.31836 14.5078 2.3457 12.873 2.3457C 11.0859 2.3457 9.88477 3.31836 9.88477 4.75391C 9.88477 5.95508 10.5469 6.64648 12.0762 7.0332L 13.1602 7.31445C 14.3262 7.60742 14.8535 8.06445 14.8535 8.78516C 14.8535 9.62305 14.0156 10.2383 12.8789 10.2383C 11.6777 10.2383 10.834 9.67578 10.7051 8.79102L 9.63867 8.79102Z"/>
  </defs>
</svg>
