<svg width="15" height="10" viewBox="0 0 15 10" version="1.1" xmlns="http://www.w3.org/2000/svg" xmlns:xlink="http://www.w3.org/1999/xlink">
  <title>Mobile Signal</title>
  <desc>Created using Figma</desc>
  <g id="Canvas" transform="translate(621 -417)">
    <g id="Mobile Signal">
      <use xlink:href="#path0_fill" transform="translate(-621 417)" fill="#FFFFFF"/>
    </g>
  </g>
  <defs>
    <path id="path0_fill" fill-rule="evenodd" d="M 12.5 0C 12.2239 0 12 0.223846 12 0.5L 12 9C 12 9.27615 12.2239 9.5 12.5 9.5L 14 9.5C 14.2761 9.5 14.5 9.27615 14.5 9L 14.5 0.5C 14.5 0.223846 14.2761 0 14 0L 12.5 0ZM 8.5 2.5C 8.22386 2.5 8 2.72385 8 3L 8 9C 8 9.27615 8.22386 9.5 8.5 9.5L 10 9.5C 10.2761 9.5 10.5 9.27615 10.5 9L 10.5 3C 10.5 2.72385 10.2761 2.5 10 2.5L 8.5 2.5ZM 4 5C 4 4.72385 4.22386 4.5 4.5 4.5L 6 4.5C 6.27614 4.5 6.5 4.72385 6.5 5L 6.5 9C 6.5 9.27615 6.27614 9.5 6 9.5L 4.5 9.5C 4.22386 9.5 4 9.27615 4 9L 4 5ZM 0.5 6.5C 0.223862 6.5 0 6.72385 0 7L 0 9C 0 9.27615 0.223862 9.5 0.5 9.5L 2 9.5C 2.27614 9.5 2.5 9.27615 2.5 9L 2.5 7C 2.5 6.72385 2.27614 6.5 2 6.5L 0.5 6.5Z"/>
  </defs>
</svg>
