<svg width="47" height="10" viewBox="0 0 47 10" version="1.1" xmlns="http://www.w3.org/2000/svg" xmlns:xlink="http://www.w3.org/1999/xlink">
  <title>Time</title>
  <desc>Created using Figma</desc>
  <g id="Canvas" transform="translate(463 -416)">
    <g id="Time">
      <use xlink:href="#path0_fill" transform="translate(-464 414.5)" fill="#FFFFFF"/>
    </g>
  </g>
  <defs>
    <path id="path0_fill" d="M 4.20312 11.2051C 6.35352 11.2051 7.63086 9.52344 7.63086 6.67578C 7.63086 5.60352 7.42578 4.70117 7.0332 4.00391C 6.46484 2.91992 5.48633 2.33398 4.25 2.33398C 2.41016 2.33398 1.10938 3.57031 1.10938 5.30469C 1.10938 6.93359 2.28125 8.11719 3.89258 8.11719C 4.88281 8.11719 5.68555 7.6543 6.08398 6.85156L 6.10156 6.85156C 6.10156 6.85156 6.125 6.85156 6.13086 6.85156C 6.14258 6.85156 6.18359 6.85156 6.18359 6.85156C 6.18359 8.78516 5.45117 9.93945 4.21484 9.93945C 3.48828 9.93945 2.92578 9.54102 2.73242 8.90234L 1.22656 8.90234C 1.47852 10.291 2.65625 11.2051 4.20312 11.2051ZM 4.25586 6.91602C 3.2832 6.91602 2.5918 6.22461 2.5918 5.25781C 2.5918 4.31445 3.31836 3.59375 4.26172 3.59375C 5.20508 3.59375 5.93164 4.32617 5.93164 5.28125C 5.93164 6.22461 5.22266 6.91602 4.25586 6.91602ZM 10.3438 11.123C 10.9004 11.123 11.2812 10.7246 11.2812 10.1973C 11.2812 9.66406 10.9004 9.27148 10.3438 9.27148C 9.79297 9.27148 9.40625 9.66406 9.40625 10.1973C 9.40625 10.7246 9.79297 11.123 10.3438 11.123ZM 10.3438 6.72852C 10.9004 6.72852 11.2812 6.33594 11.2812 5.80859C 11.2812 5.27539 10.9004 4.88281 10.3438 4.88281C 9.79297 4.88281 9.40625 5.27539 9.40625 5.80859C 9.40625 6.33594 9.79297 6.72852 10.3438 6.72852ZM 17.0059 11L 18.4531 11L 18.4531 9.42383L 19.5957 9.42383L 19.5957 8.14648L 18.4531 8.14648L 18.4531 2.54492L 16.3203 2.54492C 14.8262 4.79492 13.6367 6.67578 12.875 8.07617L 12.875 9.42383L 17.0059 9.42383L 17.0059 11ZM 14.2754 8.09375C 15.2598 6.35938 16.1387 4.9707 16.9473 3.77539L 17.0293 3.77539L 17.0293 8.18164L 14.2754 8.18164L 14.2754 8.09375ZM 23.0586 11L 24.5703 11L 24.5703 2.54492L 23.0645 2.54492L 20.8555 4.0918L 20.8555 5.54492L 22.959 4.06836L 23.0586 4.06836L 23.0586 11ZM 35.7852 11L 37.4082 11L 34.4023 2.54492L 32.7031 2.54492L 29.7031 11L 31.2324 11L 31.959 8.83789L 35.0703 8.83789L 35.7852 11ZM 33.4707 4.15625L 33.5703 4.15625L 34.7188 7.64258L 32.3105 7.64258L 33.4707 4.15625ZM 47.5918 11L 47.5918 2.54492L 45.8223 2.54492L 43.2793 8.70312L 43.1738 8.70312L 40.6309 2.54492L 38.8613 2.54492L 38.8613 11L 40.2676 11L 40.2676 5.05273L 40.3496 5.05273L 42.6875 10.6719L 43.7656 10.6719L 46.1035 5.05273L 46.1855 5.05273L 46.1855 11L 47.5918 11Z"/>
  </defs>
</svg>
