<svg width="14" height="10" viewBox="0 0 14 10" version="1.1" xmlns="http://www.w3.org/2000/svg" xmlns:xlink="http://www.w3.org/1999/xlink">
  <title>Wifi</title>
  <desc>Created using Figma</desc>
  <g id="Canvas" transform="translate(583 -417)">
    <g id="Wifi">
      <use xlink:href="#path0_fill" transform="translate(-582.5 417.5)" fill="#FFFFFF"/>
    </g>
  </g>
  <defs>
    <path id="path0_fill" fill-rule="evenodd" d="M 6.48756 0C 9.05057 0 11.363 1.03943 13 2.70688L 11.9119 3.76404C 10.5539 2.36554 8.62601 1.49222 6.48756 1.49222C 4.36288 1.49222 2.44608 2.35431 1.08955 3.73709L 0 2.68164C 1.63554 1.02896 3.93752 0 6.48756 0ZM 10.8235 4.82144C 9.74478 3.69174 8.20145 2.98447 6.48756 2.98447C 4.78828 2.98447 3.25664 3.67978 2.17928 4.79269L 3.2693 5.8486C 4.06721 5.00537 5.21365 4.47668 6.48756 4.47668C 7.77689 4.47668 8.93564 5.01825 9.73463 5.87933L 10.8235 4.82144ZM 8.64442 6.93851C 8.12637 6.34543 7.35237 5.9689 6.48756 5.9689C 5.63901 5.9689 4.87787 6.33142 4.36017 6.9053L 6.52254 9L 8.64442 6.93851Z"/>
  </defs>
</svg>
